# xmcd
#
# Track frame offsets: 
#        150
#        18143
#        37010
#        53326
#        70910
#        87374
#        105447
#        122579
#        140652
#        157487
#
# Disc length: 2323 seconds
#
# Revision: 1
# Processed by: cddbd v1.5.2PL0 Copyright (c) Steve Scherf et al.
# Submitted via: ExactAudioCopy v0.95b4
#
DISCID=8109110a
DTITLE=ฝน  ธนสุนทร - ค่อยๆ ปล่อยมือ
DYEAR=2005
DGENRE=Country
TTITLE0=ค่อยๆ ปล่อยมือ
TTITLE1=คนที่เธอ...เผลอรัก
TTITLE2=อยู่นานๆ นะ
TTITLE3=คนขี้เหร่ที่เธอลืม
TTITLE4=รักพี่ที่ใจเกินร้อย
TTITLE5=ส่งข่าวทิดมั่น
TTITLE6=ยินดีงานแต่ง
TTITLE7=ถึงแม้ไม่แคร์แล้ว
TTITLE8=โชคดีที่มีเธอ
TTITLE9=ชายในอุดมคติ
EXTD=
EXTT0=
EXTT1=
EXTT2=
EXTT3=
EXTT4=
EXTT5=
EXTT6=
EXTT7=
EXTT8=
EXTT9=
PLAYORDER=
